<?xml version="1.0" encoding="UTF-8"?>
<svg xmlns="http://www.w3.org/2000/svg" viewBox="0 0 363.74 217.84">
  <g>
    <path fill="none" stroke="#fff" stroke-width="5" stroke-miterlimit="10" d="M361.24,154.02c0,20.94-.5,40.88-1,60.31-8.59.76-17.67,1.01-27.26,1.01s-19.18-.25-28.01-1.01l-4.04-37.85c-2.02,8.32-17.66,37.85-44.66,37.85-17.09,0-34.17-10.01-47.63-26.53V31.68c16.32-18.02,40.02-29.07,70.59-29.07,23.72,0,43.15,6.56,58.29,17.66,11.11,8.33,18.17,17.67,22.21,24.23-6.81,7.06-14.38,14.38-22.96,21.95-9.85,8.83-19.69,16.15-28.52,22.71-3.28-17.66-14.89-26.24-29.02-26.24-24.73,0-37.85,20.44-37.85,45.42s23.21,45.68,47.94,45.68c4.04,0,7.83-.76,11.61-2.27v-30.54h-19.93v-25.49c12.61-.5,25.99-1,39.87-1s26.75.5,39.37,1c.5,18.93,1,38.36,1,58.3Z"/>
    <path fill="none" stroke="#fff" stroke-width="5" stroke-miterlimit="10" d="M196.05,104.7c0,36.59-.25,72.42-1.01,107.5-7.57.5-15.65,1.01-24.48,1.01h-5.55c-10.35,0-20.19-.25-29.27-1.01-.76-30.03-1.51-60.56-1.51-91.86v-14.38c0-13.12,0-20.69.25-33.56l-35.08,70.66-35.08-69.9c0,12.36.25,18.93.25,31.54,0,36.59-.5,72.42-1.26,107.5-7.57.5-15.65,1.01-24.23,1.01h-5.55c-10.6,0-20.44-.25-29.52-1.01-1.01-34.57-1.51-69.9-1.51-106.24S3,37.07,4.01,4.01c8.58-1.01,18.17-1.51,28.77-1.51h1.51c10.35,0,19.94.5,28.52,1.51l.5,1.26,36.09,77.98L135.74,4.52l.25-.5c8.33-1.01,17.92-1.51,28.26-1.51h4.54c9.59,0,18.42.76,26.24,1.51.76,33.06,1.01,66.62,1.01,100.69Z"/>
  </g>
</svg>